<svg width="32" height="34" viewBox="0 0 32 34" fill="none" xmlns="http://www.w3.org/2000/svg">
    <g filter="url(#w6m0761hsa)">
        <path d="m14.93 21.67.006.006c.615.513 1.52.513 2.134 0l.006-.006c1.603-1.36 2.849-2.666 3.7-3.92.85-1.25 1.349-2.511 1.349-3.76 0-3.686-2.951-6.05-6.125-6.05s-6.125 2.364-6.125 6.05c0 1.25.499 2.51 1.35 3.76.852 1.254 2.1 2.56 3.706 3.92zM16 14.1c-.19 0-.281-.144-.281-.233 0-.088.091-.232.281-.232.19 0 .281.144.281.232 0 .089-.091.232-.281.232z" fill="#414141" stroke="#A8A8A8" stroke-width="2"/>
        <path d="M20.853 14.076c0 3.466-4.853 6.702-4.853 6.702s-4.853-3.236-4.853-6.702a4.854 4.854 0 0 1 9.706 0v0z" stroke="#414141" stroke-width="1.4" stroke-linecap="round" stroke-linejoin="round"/>
        <path d="M16 16.29a2.25 2.25 0 1 0 0-4.5 2.25 2.25 0 0 0 0 4.5z" fill="#A8A8A8"/>
    </g>
    <defs>
        <filter id="w6m0761hsa" x="0" y=".939" width="32" height="32.121" filterUnits="userSpaceOnUse" color-interpolation-filters="sRGB">
            <feFlood flood-opacity="0" result="BackgroundImageFix"/>
            <feColorMatrix in="SourceAlpha" values="0 0 0 0 0 0 0 0 0 0 0 0 0 0 0 0 0 0 127 0" result="hardAlpha"/>
            <feOffset dy="2"/>
            <feGaussianBlur stdDeviation=".5"/>
            <feColorMatrix values="0 0 0 0 0 0 0 0 0 0 0 0 0 0 0 0 0 0 0.15 0"/>
            <feBlend in2="BackgroundImageFix" result="effect1_dropShadow_3979_28980"/>
            <feColorMatrix in="SourceAlpha" values="0 0 0 0 0 0 0 0 0 0 0 0 0 0 0 0 0 0 127 0" result="hardAlpha"/>
            <feOffset dy="2"/>
            <feGaussianBlur stdDeviation="4"/>
            <feColorMatrix values="0 0 0 0 0 0 0 0 0 0 0 0 0 0 0 0 0 0 0.25 0"/>
            <feBlend in2="effect1_dropShadow_3979_28980" result="effect2_dropShadow_3979_28980"/>
            <feBlend in="SourceGraphic" in2="effect2_dropShadow_3979_28980" result="shape"/>
        </filter>
    </defs>
</svg>
