<svg width="32" height="35" viewBox="0 0 32 35" fill="none" xmlns="http://www.w3.org/2000/svg">
    <ellipse opacity=".2" cx="16" cy="26.258" rx="10" ry="5.5" fill="#FECF6C"/>
    <g filter="url(#xx506n58la)">
        <path d="m14.935 24.795.003.003c.613.511 1.52.511 2.133 0l.004-.004c2.371-2.013 4.18-3.917 5.4-5.713 1.22-1.794 1.88-3.522 1.88-5.171 0-5.014-3.997-8.243-8.355-8.243-4.358 0-8.354 3.229-8.354 8.243 0 1.649.66 3.377 1.88 5.171 1.222 1.797 3.033 3.7 5.409 5.714zM16 14.906c-.714 0-1.255-.557-1.255-1.18 0-.625.541-1.182 1.255-1.182.714 0 1.255.557 1.255 1.181s-.541 1.181-1.255 1.181z" fill="#FECF6C" stroke="#FECF6C" stroke-width="1.333"/>
        <path d="M23.28 14.037c0 5.2-7.28 10.054-7.28 10.054s-7.28-4.854-7.28-10.054a7.28 7.28 0 0 1 14.56 0v0z" stroke="#FECF6C" stroke-width="1.244" stroke-linecap="round" stroke-linejoin="round"/>
        <path d="M16 20.09a6 6 0 1 0 0-12 6 6 0 0 0 0 12z" fill="#fff"/>
    </g>
    <defs>
        <filter id="xx506n58la" x=".313" y=".333" width="31.375" height="34.181" filterUnits="userSpaceOnUse" color-interpolation-filters="sRGB">
            <feFlood flood-opacity="0" result="BackgroundImageFix"/>
            <feColorMatrix in="SourceAlpha" values="0 0 0 0 0 0 0 0 0 0 0 0 0 0 0 0 0 0 127 0" result="hardAlpha"/>
            <feOffset dy="2"/>
            <feGaussianBlur stdDeviation="3.333"/>
            <feComposite in2="hardAlpha" operator="out"/>
            <feColorMatrix values="0 0 0 0 0 0 0 0 0 0 0 0 0 0 0 0 0 0 0.24 0"/>
            <feBlend in2="BackgroundImageFix" result="effect1_dropShadow_3860_24141"/>
            <feColorMatrix in="SourceAlpha" values="0 0 0 0 0 0 0 0 0 0 0 0 0 0 0 0 0 0 127 0" result="hardAlpha"/>
            <feOffset dy="2"/>
            <feGaussianBlur stdDeviation=".333"/>
            <feComposite in2="hardAlpha" operator="out"/>
            <feColorMatrix values="0 0 0 0 0 0 0 0 0 0 0 0 0 0 0 0 0 0 0.1 0"/>
            <feBlend in2="effect1_dropShadow_3860_24141" result="effect2_dropShadow_3860_24141"/>
            <feBlend in="SourceGraphic" in2="effect2_dropShadow_3860_24141" result="shape"/>
        </filter>
    </defs>
</svg>
