<svg width="56" height="56" viewBox="0 0 56 56" fill="none" xmlns="http://www.w3.org/2000/svg">
<g clip-path="url(#clip0_3855_21487)" filter="url(#filter0_dd_3855_21487)">
<circle cx="28" cy="25" r="20" fill="#141414"/>
<path d="M24.1806 25C24.1806 22.8898 25.8898 21.1806 28.0001 21.1806C30.1103 21.1806 31.8195 22.8898 31.8195 25C31.8195 27.1102 30.1103 28.8194 28.0001 28.8194C25.8898 28.8194 24.1806 27.1102 24.1806 25ZM28.0001 12.7778C28.8451 12.7778 29.5278 13.4619 29.5278 14.3056V15.9599C33.3664 16.6039 36.3981 19.6337 37.0378 23.4722H38.6945C39.5395 23.4722 40.2223 24.1549 40.2223 25C40.2223 25.8451 39.5395 26.5278 38.6945 26.5278H37.0378C36.3981 30.3663 33.3664 33.398 29.5278 34.0378V35.6944C29.5278 36.5395 28.8451 37.2222 28.0001 37.2222C27.155 37.2222 26.4723 36.5395 26.4723 35.6944V34.0378C22.6337 33.398 19.604 30.3663 18.9599 26.5278H17.3056C16.462 26.5278 15.7778 25.8451 15.7778 25C15.7778 24.1549 16.462 23.4722 17.3056 23.4722H18.9599C19.604 19.6337 22.6337 16.6039 26.4723 15.9599V14.3056C26.4723 13.4619 27.155 12.7778 28.0001 12.7778ZM21.8889 25C21.8889 28.3754 24.6246 31.1111 28.0001 31.1111C31.3755 31.1111 34.1112 28.3754 34.1112 25C34.1112 21.6246 31.3755 18.8889 28.0001 18.8889C24.6246 18.8889 21.8889 21.6246 21.8889 25Z" fill="#8D8D8D" stroke="#141414" stroke-width="0.8"/>
</g>
<defs>
<filter id="filter0_dd_3855_21487" x="0" y="0" width="56" height="56" filterUnits="userSpaceOnUse" color-interpolation-filters="sRGB">
<feFlood flood-opacity="0" result="BackgroundImageFix"/>
<feColorMatrix in="SourceAlpha" type="matrix" values="0 0 0 0 0 0 0 0 0 0 0 0 0 0 0 0 0 0 127 0" result="hardAlpha"/>
<feOffset dy="3"/>
<feGaussianBlur stdDeviation="0.5"/>
<feColorMatrix type="matrix" values="0 0 0 0 0 0 0 0 0 0 0 0 0 0 0 0 0 0 0.06 0"/>
<feBlend mode="normal" in2="BackgroundImageFix" result="effect1_dropShadow_3855_21487"/>
<feColorMatrix in="SourceAlpha" type="matrix" values="0 0 0 0 0 0 0 0 0 0 0 0 0 0 0 0 0 0 127 0" result="hardAlpha"/>
<feOffset dy="3"/>
<feGaussianBlur stdDeviation="4"/>
<feColorMatrix type="matrix" values="0 0 0 0 0 0 0 0 0 0 0 0 0 0 0 0 0 0 0.15 0"/>
<feBlend mode="normal" in2="effect1_dropShadow_3855_21487" result="effect2_dropShadow_3855_21487"/>
<feBlend mode="normal" in="SourceGraphic" in2="effect2_dropShadow_3855_21487" result="shape"/>
</filter>
<clipPath id="clip0_3855_21487">
<rect width="40" height="40" fill="white" transform="translate(8 5)"/>
</clipPath>
</defs>
</svg>
